{"title":"Winchester.2018.720p.HDCAM.x264.AAC.LLG","magnet":"magnet:?xt=urn:btih:1cf696d08f0492de215d9609ef5484ac195e8969&dn=Winchester.2018.720p.HDCAM.x264.AAC.LLG&tr=udp%3A%2F%2Ftracker.leechers-paradise.org%3A6969&tr=udp%3A%2F%2Fzer0day.ch%3A1337&tr=udp%3A%2F%2Fopen.demonii.com%3A1337&tr=udp%3A%2F%2Ftracker.coppersurfer.tk%3A6969&tr=udp%3A%2F%2Fexodus.desync.com%3A6969","uploader":"LifeLongg","categoryP":"video","categoryS":"movies","size":"978703159","seeders":"0","leechers":"0","description":"******************************Screenshots:********************\r\n <a href=\"\nhttp://picserver4u.com/apple/0921.html\" rel=\"nofollow\" target=\"_NEW\">\nhttp://picserver4u.com/apple/0921.html</a>\r\n <a href=\"\nhttp://picserver4u.com/apple/0922.html\" rel=\"nofollow\" target=\"_NEW\">\nhttp://picserver4u.com/apple/0922.html</a>\r\n <a href=\"\nhttp://picserver4u.com/apple/0923.html\" rel=\"nofollow\" target=\"_NEW\">\nhttp://picserver4u.com/apple/0923.html</a>\r\n <a href=\"\nhttp://picserver4u.com/apple/0924.html\" rel=\"nofollow\" target=\"_NEW\">\nhttp://picserver4u.com/apple/0924.html</a>\r\n <a href=\"\nhttp://picserver4u.com/apple/0925.html\" rel=\"nofollow\" target=\"_NEW\">\nhttp://picserver4u.com/apple/0925.html</a>\r\n\r\n************************************************************** \r\n\r\nComplete name                            : Winchester.2018.720p.HDCAM.x264.AAC.LLG.mp4\r\nFormat                                   : MPEG-4\r\nFormat profile                           : Base Media\r\nCodec ID                                 : isom (isom/iso2/avc1/mp41)\r\nFile size                                : 897 MiB\r\nDuration                                 : 1 h 39 min\r\nOverall bit rate                         : 1 262 kb/s\r\nWriting application                      : Lavf57.56.101\r\n\r\nVideo\r\nID                                       : 1\r\nFormat                                   : AVC\r\nFormat/Info                              : Advanced Video Codec\r\nFormat profile                           : <a href=\"/cdn-cgi/l/email-protection\" class=\"__cf_email__\" data-cfemail=\"0a42636d624a4639243b\">[email&#xA0;protected]</a>\r\nFormat settings                          : CABAC / 4 Ref Frames\r\nFormat settings, CABAC                   : Yes\r\nFormat settings, RefFrames               : 4 frames\r\nCodec ID                                 : avc1\r\nCodec ID/Info                            : Advanced Video Coding\r\nDuration                                 : 1 h 39 min\r\nBit rate                                 : 1 200 kb/s\r\nWidth                                    : 1 280 pixels\r\nHeight                                   : 580 pixels\r\nDisplay aspect ratio                     : 2.2:1\r\nFrame rate mode                          : Constant\r\nFrame rate                               : 23.976 (23976/1000) FPS\r\nColor space                              : YUV\r\nChroma subsampling                       : 4:2:0\r\nBit depth                                : 8 bits\r\nScan type                                : Progressive\r\nBits/(Pixel*Frame)                       : 0.067\r\nStream size                              : 846 MiB (94%)\r\n\r\nAudio\r\nID                                       : 2\r\nFormat                                   : AAC\r\nFormat/Info                              : Advanced Audio Codec\r\nFormat profile                           : LC\r\nCodec ID                                 : mp4a-40-2\r\nDuration                                 : 1 h 39 min\r\nBit rate mode                            : Constant\r\nBit rate                                 : 64.4 kb/s\r\nChannel(s)                               : 2 channels\r\nChannel positions                        : Front: L R\r\nSampling rate                            : 44.1 kHz\r\nFrame rate                               : 43.066 FPS (1024 SPF)\r\nCompression mode                         : Lossy\r\nStream size                              : 45.8 MiB (5%)\r\nDefault                                  : Yes\r\nAlternate group                          : 1","last_updated":"2018-03-16T12:03:15.806Z","parsed":{"xt":"urn:btih:1cf696d08f0492de215d9609ef5484ac195e8969","dn":"Winchester.2018.720p.HDCAM.x264.AAC.LLG","tr":["udp://exodus.desync.com:6969","udp://open.demonii.com:1337","udp://tracker.coppersurfer.tk:6969","udp://tracker.leechers-paradise.org:6969","udp://zer0day.ch:1337"],"infoHash":"1cf696d08f0492de215d9609ef5484ac195e8969","infoHashBuffer":{"type":"Buffer","data":[28,246,150,208,143,4,146,222,33,93,150,9,239,84,132,172,25,94,137,105]},"name":"Winchester.2018.720p.HDCAM.x264.AAC.LLG","announce":["udp://exodus.desync.com:6969","udp://open.demonii.com:1337","udp://tracker.coppersurfer.tk:6969","udp://tracker.leechers-paradise.org:6969","udp://zer0day.ch:1337"],"urlList":[]}}